<svg width="19" height="20" viewBox="0 0 19 20" fill="none" xmlns="http://www.w3.org/2000/svg">
<path d="M1.58325 18.3333H17.4166" stroke="#687553" stroke-width="1.18589" stroke-miterlimit="10" stroke-linecap="round" stroke-linejoin="round"/>
<path d="M2.33545 18.3334L2.37503 8.30833C2.37503 7.8 2.60462 7.31671 2.98462 7.00005L8.52628 2.45837C9.09628 1.9917 9.89587 1.9917 10.4738 2.45837L16.0155 6.9917C16.4034 7.30837 16.625 7.79167 16.625 8.30833V18.3334" stroke="#687553" stroke-width="1.18589" stroke-miterlimit="10" stroke-linejoin="round"/>
<path d="M10.2917 14.1667H8.70837C8.05129 14.1667 7.52087 14.725 7.52087 15.4167V18.3333H11.4792V15.4167C11.4792 14.725 10.9488 14.1667 10.2917 14.1667Z" stroke="#687553" stroke-width="1.18589" stroke-miterlimit="10" stroke-linejoin="round"/>
<path d="M7.52075 11.4583H5.93742C5.502 11.4583 5.14575 11.0833 5.14575 10.625V9.37499C5.14575 8.91666 5.502 8.54166 5.93742 8.54166H7.52075C7.95617 8.54166 8.31242 8.91666 8.31242 9.37499V10.625C8.31242 11.0833 7.95617 11.4583 7.52075 11.4583Z" stroke="#687553" stroke-width="1.18589" stroke-miterlimit="10" stroke-linejoin="round"/>
<path d="M13.0625 11.4583H11.4792C11.0438 11.4583 10.6875 11.0833 10.6875 10.625V9.37499C10.6875 8.91666 11.0438 8.54166 11.4792 8.54166H13.0625C13.4979 8.54166 13.8542 8.91666 13.8542 9.37499V10.625C13.8542 11.0833 13.4979 11.4583 13.0625 11.4583Z" stroke="#687553" stroke-width="1.18589" stroke-miterlimit="10" stroke-linejoin="round"/>
<path d="M15.0416 5.83334L15.0179 3.33334H11.5345" stroke="#687553" stroke-width="1.18589" stroke-miterlimit="10" stroke-linecap="round" stroke-linejoin="round"/>
</svg>
